<svg xmlns="http://www.w3.org/2000/svg" width="48" height="48" viewBox="0 0 48 48"><defs><style>.cls-1{fill:none;stroke:#9bc5de;stroke-linejoin:round;stroke-width:2px;}</style></defs><title>23-Api - Development</title><g id="_23-Api_-_Development" data-name="23-Api - Development"><line class="cls-1" x1="4" y1="27" x2="44" y2="27"/><polygon class="cls-1" points="31 43 17 43 18 35 30 35 31 43"/><path class="cls-1" d="M34,43v3a1,1,0,0,1-1,1H15a1,1,0,0,1-1-1V43Z"/><path class="cls-1" d="M45,1a2,2,0,0,1,2,2V33a2,2,0,0,1-2,2H3a2,2,0,0,1-2-2V3A2,2,0,0,1,3,1"/><line class="cls-1" x1="11" y1="47" x2="37" y2="47"/><path class="cls-1" d="M42,16V3a1.959,1.959,0,0,0-2-2H8"/><path class="cls-1" d="M6,16V3A1.959,1.959,0,0,1,8,1"/><line class="cls-1" x1="6" y1="6" x2="42" y2="6"/><path class="cls-1" d="M24,24V13a1.959,1.959,0,0,1,2-2h2a1.959,1.959,0,0,1,2,2v3a1.959,1.959,0,0,1-2,2H24"/><line class="cls-1" x1="34" y1="10" x2="34" y2="24"/><path class="cls-1" d="M14,24V13a1.959,1.959,0,0,1,2-2h2a1.959,1.959,0,0,1,2,2V24"/><line class="cls-1" x1="14" y1="17" x2="20" y2="17"/><line class="cls-1" x1="6" y1="22" x2="6" y2="24"/><line class="cls-1" x1="42" y1="22" x2="42" y2="24"/><line class="cls-1" x1="42" y1="18" x2="42" y2="20"/><line class="cls-1" x1="6" y1="18" x2="6" y2="20"/></g></svg>