<svg xmlns="http://www.w3.org/2000/svg" width="48" height="48" viewBox="0 0 48 48"><defs><style>.cls-1{fill:none;stroke:#EAF7FF;stroke-linejoin:round;stroke-width:2px;}</style></defs><title>17-Browser - Interface</title><g id="_17-Browser_-_Interface" data-name="17-Browser - Interface"><path class="cls-1" d="M26,1H5A4,4,0,0,0,1,5V43a4,4,0,0,0,4,4H43a4,4,0,0,0,4-4V23"/><line class="cls-1" x1="4" y1="9" x2="20" y2="9"/><line class="cls-1" x1="5" y1="5" x2="7" y2="5"/><line class="cls-1" x1="9" y1="5" x2="11" y2="5"/><path class="cls-1" d="M18.992,17A13,13,0,0,0,19,41v3"/><path class="cls-1" d="M29,44V41a13,13,0,0,0,8-12"/><path class="cls-1" d="M22,26a2,2,0,1,0-2,2h9"/><line class="cls-1" x1="24" y1="28" x2="24" y2="44"/><circle class="cls-1" cx="35" cy="13" r="12"/><polyline class="cls-1" points="32 9 28 13 32 17"/><polyline class="cls-1" points="38 17 42 13 38 9"/><polyline class="cls-1" points="9 13 5 13 5 17"/><polyline class="cls-1" points="39 43 43 43 43 39"/></g></svg>