<svg xmlns="http://www.w3.org/2000/svg" width="48" height="48" viewBox="0 0 48 48"><defs><style>.cls-1{fill:none;stroke:#9bc5de;stroke-linejoin:round;stroke-width:2px;}</style></defs><title>30-Coding</title><g id="_30-Coding" data-name="30-Coding"><rect class="cls-1" x="1" y="1" width="46" height="46" rx="4" ry="4"/><line class="cls-1" x1="4" y1="9" x2="44" y2="9"/><line class="cls-1" x1="5" y1="5" x2="7" y2="5"/><line class="cls-1" x1="9" y1="5" x2="11" y2="5"/><line class="cls-1" x1="41" y1="5" x2="43" y2="5"/><path class="cls-1" d="M18,18H16a2,2,0,0,0-2,2v6H11"/><path class="cls-1" d="M18,37H16a2,2,0,0,1-2-2V29"/><path class="cls-1" d="M30,37h2a2,2,0,0,0,2-2V29h3"/><path class="cls-1" d="M30,18h2a2,2,0,0,1,2,2v6"/><line class="cls-1" x1="23" y1="27" x2="25" y2="27"/><line class="cls-1" x1="27" y1="27" x2="29" y2="27"/><line class="cls-1" x1="19" y1="27" x2="21" y2="27"/><polyline class="cls-1" points="9 13 5 13 5 17"/><polyline class="cls-1" points="39 43 43 43 43 39"/></g></svg>