<svg xmlns="http://www.w3.org/2000/svg" width="48" height="48" viewBox="0 0 48 48"><defs><style>.cls-1{fill:none;stroke:#9bc5de;stroke-linejoin:round;stroke-width:2px;}</style></defs><title>29-Css</title><g id="_29-Css" data-name="29-Css"><line class="cls-1" x1="4" y1="27" x2="44" y2="27"/><polygon class="cls-1" points="31 43 17 43 18 35 30 35 31 43"/><path class="cls-1" d="M34,43v3a1,1,0,0,1-1,1H15a1,1,0,0,1-1-1V43Z"/><path class="cls-1" d="M45,1a2,2,0,0,1,2,2V33a2,2,0,0,1-2,2H3a2,2,0,0,1-2-2V3A2,2,0,0,1,3,1"/><line class="cls-1" x1="11" y1="47" x2="37" y2="47"/><path class="cls-1" d="M42,16V3a1.959,1.959,0,0,0-2-2H8"/><path class="cls-1" d="M6,16V3A1.959,1.959,0,0,1,8,1"/><line class="cls-1" x1="6" y1="6" x2="42" y2="6"/><line class="cls-1" x1="6" y1="22" x2="6" y2="24"/><line class="cls-1" x1="42" y1="22" x2="42" y2="24"/><line class="cls-1" x1="42" y1="18" x2="42" y2="20"/><line class="cls-1" x1="6" y1="18" x2="6" y2="20"/><path class="cls-1" d="M17,15V13a1.959,1.959,0,0,0-2-2H13a1.959,1.959,0,0,0-2,2v8a1.959,1.959,0,0,0,2,2h2a1.959,1.959,0,0,0,2-2V19"/><path class="cls-1" d="M27,15V13.109A2.018,2.018,0,0,0,25,11H23a1.927,1.927,0,0,0-2,2v2a1.927,1.927,0,0,0,2,2h1"/><path class="cls-1" d="M21,19v1.891A2.018,2.018,0,0,0,23,23h2a1.927,1.927,0,0,0,2-2V19a1.927,1.927,0,0,0-2-2H24"/><path class="cls-1" d="M37,15V13.109A2.018,2.018,0,0,0,35,11H33a1.927,1.927,0,0,0-2,2v2a1.927,1.927,0,0,0,2,2h1"/><path class="cls-1" d="M31,19v1.891A2.018,2.018,0,0,0,33,23h2a1.927,1.927,0,0,0,2-2V19a1.927,1.927,0,0,0-2-2H34"/></g></svg>