<svg xmlns="http://www.w3.org/2000/svg" width="465.3" height="374.92" viewBox="0 0 465.3 374.92"><title>Illustrator cs</title><g opacity="0.13"><path d="M296,490.58l-3,3V488h3Zm109.11,3-3-3V488h3Z" transform="translate(-27.46 -146)" fill="#808285"/><path d="M485.1,146H192.87a7.65,7.65,0,0,0-7.66,7.66V350.8H46.09a13.91,13.91,0,0,0,0,27.81H95.91a5.49,5.49,0,0,1,5.48,5.48v52.22h-2.7a19.25,19.25,0,0,0-19.24,19.23V501.7a19.24,19.24,0,0,0,19.24,19.22h10.25a19.23,19.23,0,0,0,19.23-19.22V455.54a19.24,19.24,0,0,0-19.23-19.23h-3.35V384.09a9.69,9.69,0,0,0-9.68-9.68H46.09a9.71,9.71,0,0,1,0-19.41H185.21v6.71a7.65,7.65,0,0,0,7.66,7.65H299.78q-3.06,12.52-6.13,25.05h-5.8c-2.59,0-4.7,2.47-4.7,5.53V402H394.82v-2.07c0-3.06-2.11-5.53-4.7-5.53h-5.8l-6.12-25.05H485.1a7.65,7.65,0,0,0,7.66-7.65v-208A7.66,7.66,0,0,0,485.1,146Z" transform="translate(-27.46 -146)" fill="#020202"/><polygon points="140.65 185.91 140.65 183.38 140.65 178.53 140.65 176 140.65 171.18 140.65 168.65 140.65 163.52 140.65 160.98 140.65 156.16 140.65 153.63 140.65 148.53 140.65 146 140.65 137.68 140.65 135.14 140.65 130.08 140.65 127.54 140.65 121.83 140.65 119.29 140.65 114.46 140.65 111.92 140.65 107.49 140.65 104.96 140.65 99.26 140.65 96.73 140.65 92.3 140.65 89.76 140.65 84.28 140.65 81.75 140.65 76.67 140.65 74.15 140.65 68.68 140.65 66.15 140.65 61.3 140.65 58.77 140.65 53.95 140.65 51.42 140.65 46.29 140.65 43.75 140.65 38.94 140.65 36.41 140.65 31.3 140.65 28.78 140.65 22.57 121.48 22.57 119.49 22.57 119.49 192.33 119.49 192.36 140.65 192.36 140.65 185.91" fill="#020202"/></g><path d="M289.36,355h-248a9.71,9.71,0,0,0,0,19.42H91.18a9.69,9.69,0,0,1,9.68,9.67v56h-4.2v-56a5.49,5.49,0,0,0-5.48-5.48H41.36a13.9,13.9,0,1,1,0-27.8h248Z" transform="translate(-27.46 -146)" fill="#fff"/><path d="M94,436.28a19.24,19.24,0,0,0-19.24,19.23v46.15A19.24,19.24,0,0,0,94,520.88h5.11v-84.6Z" transform="translate(-27.46 -146)" fill="#fff"/><path d="M104.2,436.28H99.07v84.6h5.13a19.24,19.24,0,0,0,19.24-19.22V455.51A19.24,19.24,0,0,0,104.2,436.28Z" transform="translate(-27.46 -146)" fill="#e7e7e7"/><path d="M92.67,456.68v4.14a6.43,6.43,0,0,0,6.4,6.42v-17A6.41,6.41,0,0,0,92.67,456.68Z" transform="translate(-27.46 -146)" fill="#103754"/><path d="M99.07,450.28h0v17h0a6.42,6.42,0,0,0,6.42-6.42v-4.14A6.41,6.41,0,0,0,99.07,450.28Z" transform="translate(-27.46 -146)" fill="#0f303f"/><rect x="167.76" y="261.48" width="272.85" height="80.44" fill="#d1d3d4"/><rect x="299.76" y="271.58" width="11.58" height="11.58" fill="#152b38"/><rect x="319.68" y="271.58" width="11.58" height="11.58" fill="#152b38"/><rect x="303.54" y="287.8" width="11.58" height="11.58" fill="#152b38"/><rect x="323.46" y="287.8" width="11.58" height="11.58" fill="#152b38"/><rect x="401.17" y="320.22" width="11.58" height="11.58" fill="#152b38"/><rect x="421.09" y="320.22" width="11.58" height="11.58" fill="#152b38"/><rect x="299.76" y="271.58" width="11.58" height="11.58" fill="#152b38"/><rect x="319.68" y="271.58" width="11.58" height="11.58" fill="#152b38"/><rect x="311.13" y="304.01" width="11.58" height="11.58" fill="#152b38"/><rect x="331.04" y="304.01" width="11.58" height="11.58" fill="#152b38"/><rect x="299.76" y="320.22" width="11.58" height="11.58" fill="#152b38"/><rect x="319.68" y="320.22" width="11.58" height="11.58" fill="#152b38"/><rect x="340.48" y="271.58" width="11.59" height="11.58" fill="#152b38"/><rect x="360.4" y="271.58" width="11.58" height="11.58" fill="#152b38"/><rect x="380.31" y="271.58" width="11.59" height="11.58" fill="#152b38"/><rect x="343.51" y="287.8" width="11.58" height="11.58" fill="#152b38"/><rect x="363.44" y="287.8" width="11.57" height="11.58" fill="#152b38"/><rect x="383.35" y="287.8" width="11.59" height="27.79" fill="#152b38"/><rect x="351.58" y="304.01" width="11.58" height="11.58" fill="#152b38"/><rect x="371.98" y="304.01" width="14.13" height="11.58" fill="#152b38"/><rect x="340.48" y="320.22" width="11.59" height="11.58" fill="#152b38"/><rect x="360.4" y="320.22" width="11.58" height="11.58" fill="#152b38"/><rect x="380.31" y="320.22" width="11.59" height="11.58" fill="#152b38"/><rect x="179.05" y="271.58" width="11.58" height="11.58" fill="#152b38"/><rect x="198.96" y="271.58" width="11.58" height="11.58" fill="#152b38"/><rect x="179.05" y="287.8" width="15.13" height="11.58" fill="#152b38"/><rect x="201.99" y="287.8" width="11.58" height="11.58" fill="#152b38"/><rect x="179.05" y="304.01" width="22.95" height="11.58" fill="#152b38"/><rect x="210.33" y="304.01" width="11.58" height="11.58" fill="#152b38"/><rect x="218.42" y="271.58" width="11.58" height="11.58" fill="#152b38"/><rect x="238.34" y="271.58" width="11.58" height="11.58" fill="#152b38"/><rect x="221.45" y="287.8" width="11.58" height="11.58" fill="#152b38"/><rect x="241.37" y="287.8" width="11.58" height="11.58" fill="#152b38"/><rect x="229.79" y="304.01" width="11.58" height="11.58" fill="#152b38"/><rect x="249.7" y="304.01" width="11.58" height="11.58" fill="#152b38"/><rect x="179.05" y="320.22" width="11.58" height="11.58" fill="#152b38"/><rect x="198.96" y="320.22" width="11.58" height="11.58" fill="#152b38"/><rect x="218.42" y="320.22" width="72.73" height="11.58" fill="#152b38"/><rect x="259.65" y="271.58" width="11.59" height="11.58" fill="#152b38"/><rect x="279.57" y="271.58" width="11.58" height="11.58" fill="#152b38"/><rect x="262.68" y="287.8" width="11.58" height="11.58" fill="#152b38"/><rect x="282.6" y="287.8" width="11.58" height="11.58" fill="#152b38"/><rect x="271.02" y="304.01" width="11.58" height="11.58" fill="#152b38"/><rect x="290.94" y="304.01" width="11.58" height="11.58" fill="#152b38"/><rect x="401.17" y="271.58" width="11.58" height="11.58" fill="#152b38"/><rect x="421.09" y="271.58" width="11.58" height="11.58" fill="#152b38"/><rect x="401.17" y="287.8" width="11.58" height="11.58" fill="#152b38"/><rect x="421.09" y="287.8" width="11.58" height="11.58" fill="#152b38"/><rect x="401.17" y="304.01" width="11.58" height="11.58" fill="#152b38"/><rect x="421.09" y="304.01" width="11.58" height="11.58" fill="#152b38"/><path d="M298.5,355.21l-9.75,39.87h91L370,355.21Z" transform="translate(-27.46 -146)" fill="#e8eaea"/><path d="M385.39,394.38H283.12c-2.6,0-4.7,2.46-4.7,5.52V402H390.09V399.9C390.09,396.84,388,394.38,385.39,394.38Z" transform="translate(-27.46 -146)" fill="#fff"/><path d="M180.48,339.7v22a7.65,7.65,0,0,0,7.66,7.65H480.37a7.65,7.65,0,0,0,7.66-7.65v-22Z" transform="translate(-27.46 -146)" fill="#fff"/><path d="M485.94,339.7v-186a7.65,7.65,0,0,0-7.66-7.65H186.05a7.65,7.65,0,0,0-7.66,7.65v186Z" transform="translate(-27.46 -146)" fill="#58595b"/><rect x="165.61" y="11.97" width="282.36" height="169.04" fill="#e7e7e7"/><rect x="165.61" y="11.97" width="282.36" height="30.4" fill="#9bc5de"/><rect x="165.61" y="45.99" width="282.36" height="60.66" fill="#a7a9ac"/><rect x="198.22" y="112.07" width="64.65" height="38.82" fill="#9bc5de"/><rect x="198.22" y="154.79" width="64.65" height="3.08" fill="#9bc5de"/><rect x="198.22" y="160.95" width="64.65" height="3.08" fill="#9bc5de"/><rect x="198.22" y="167.11" width="64.65" height="3.08" fill="#9bc5de"/><rect x="198.22" y="173.27" width="44.36" height="3.08" fill="#9bc5de"/><rect x="274.47" y="112.07" width="64.65" height="38.82" fill="#9bc5de"/><rect x="274.47" y="154.79" width="64.88" height="3.08" fill="#9bc5de"/><rect x="274.47" y="160.95" width="64.88" height="3.08" fill="#9bc5de"/><rect x="274.47" y="167.11" width="64.88" height="3.08" fill="#9bc5de"/><rect x="274.47" y="173.27" width="64.88" height="3.08" fill="#9bc5de"/><rect x="350.71" y="112.07" width="64.65" height="38.82" fill="#9bc5de"/><rect x="350.71" y="154.79" width="64.65" height="3.08" fill="#9bc5de"/><rect x="350.71" y="160.95" width="64.65" height="3.08" fill="#9bc5de"/><rect x="350.71" y="167.11" width="64.65" height="3.08" fill="#9bc5de"/><rect x="350.71" y="173.27" width="18.4" height="3.08" fill="#9bc5de"/><path d="M248,173.16a11.15,11.15,0,1,0-11.14,11.15A11.15,11.15,0,0,0,248,173.16Z" transform="translate(-27.46 -146)" fill="#e7e7e7"/><rect x="388.2" y="19.28" width="27.16" height="10.4" fill="#e7e7e7"/><rect x="355.52" y="19.28" width="27.16" height="10.4" fill="#e7e7e7"/><rect x="322.84" y="19.28" width="27.16" height="10.4" fill="#e7e7e7"/><rect x="290.17" y="19.28" width="27.16" height="10.4" fill="#e7e7e7"/><rect x="114.76" y="22.53" width="21.16" height="169.79" fill="#e7e7e7"/><rect x="124.88" y="28.74" width="11.04" height="2.53" fill="#d4d5d5"/><rect x="124.88" y="58.73" width="11.04" height="2.53" fill="#d4d5d5"/><rect x="124.88" y="74.11" width="11.04" height="2.53" fill="#d4d5d5"/><rect x="124.88" y="89.73" width="11.04" height="2.54" fill="#d4d5d5"/><rect x="124.26" y="104.92" width="11.66" height="2.53" fill="#d4d5d5"/><rect x="124.26" y="119.26" width="11.66" height="2.53" fill="#d4d5d5"/><rect x="124.26" y="135.1" width="11.66" height="2.54" fill="#d4d5d5"/><rect x="124.88" y="43.72" width="11.04" height="2.54" fill="#d4d5d5"/><rect x="130.4" y="36.37" width="5.52" height="2.53" fill="#d4d5d5"/><rect x="130.4" y="51.38" width="5.52" height="2.53" fill="#d4d5d5"/><rect x="130.4" y="66.12" width="5.52" height="2.53" fill="#d4d5d5"/><rect x="130.4" y="81.71" width="5.52" height="2.53" fill="#d4d5d5"/><rect x="130.4" y="96.69" width="5.52" height="2.54" fill="#d4d5d5"/><rect x="130.4" y="111.89" width="5.52" height="2.53" fill="#d4d5d5"/><rect x="130.4" y="127.51" width="5.52" height="2.54" fill="#d4d5d5"/><rect x="124.88" y="145.96" width="11.04" height="2.53" fill="#d4d5d5"/><rect x="124.88" y="175.96" width="11.04" height="2.53" fill="#d4d5d5"/><rect x="124.88" y="160.95" width="11.04" height="2.53" fill="#d4d5d5"/><rect x="130.4" y="153.6" width="5.52" height="2.53" fill="#d4d5d5"/><rect x="130.4" y="168.61" width="5.52" height="2.53" fill="#d4d5d5"/><rect x="130.4" y="183.34" width="5.52" height="2.53" fill="#d4d5d5"/><rect x="114.76" y="22.53" width="2" height="169.76" fill="#d2d3d4"/></svg>