<svg xmlns="http://www.w3.org/2000/svg" width="48" height="48" viewBox="0 0 48 48"><defs><style>.cls-1{fill:none;stroke:#EAF7FF;stroke-linejoin:round;stroke-width:2px;}</style></defs><title>8-Ui Ux</title><g id="_8-Ui_Ux" data-name="8-Ui Ux"><path class="cls-1" d="M9,13V3a2,2,0,0,1,2-2H35a2,2,0,0,1,2,2V13"/><path class="cls-1" d="M9,35V45a2,2,0,0,0,2,2H35a2,2,0,0,0,2-2V35"/><line class="cls-1" x1="12" y1="9" x2="34" y2="9"/><line class="cls-1" x1="12" y1="39" x2="34" y2="39"/><line class="cls-1" x1="15" y1="5" x2="27" y2="5"/><line class="cls-1" x1="29" y1="5" x2="31" y2="5"/><line class="cls-1" x1="22" y1="43" x2="24" y2="43"/><line class="cls-1" x1="29" y1="16" x2="29" y2="20"/><line class="cls-1" x1="19" y1="16" x2="19" y2="20"/><line class="cls-1" x1="9" y1="16" x2="9" y2="20"/><line class="cls-1" x1="39" y1="16" x2="39" y2="20"/><rect class="cls-1" x="2" y="16" width="44" height="8" rx="1" ry="1"/><line class="cls-1" x1="24" y1="16" x2="24" y2="21"/><line class="cls-1" x1="14" y1="16" x2="14" y2="21"/><line class="cls-1" x1="34" y1="16" x2="34" y2="21"/><line class="cls-1" x1="9" y1="32" x2="9" y2="28"/><polygon class="cls-1" points="43 32 46 30 43 28 2 28 2 32 43 32"/></g></svg>