<svg id="_1-Coding" data-name="1-Coding" xmlns="http://www.w3.org/2000/svg" width="48" height="48" viewBox="0 0 48 48"><defs><style>.cls-1{fill:none;stroke:#9bc5de;stroke-linejoin:round;stroke-width:2px;}</style></defs><title>1-Coding</title><rect class="cls-1" x="1" y="1" width="46" height="46" rx="4" ry="4"/><line class="cls-1" x1="4" y1="9" x2="44" y2="9"/><line class="cls-1" x1="5" y1="5" x2="7" y2="5"/><line class="cls-1" x1="9" y1="5" x2="11" y2="5"/><line class="cls-1" x1="41" y1="5" x2="43" y2="5"/><line class="cls-1" x1="17" y1="12" x2="17" y2="44"/><rect class="cls-1" x="24" y="16" width="12" height="4" rx="1" ry="1"/><line class="cls-1" x1="23" y1="24" x2="25" y2="24"/><line class="cls-1" x1="38" y1="28" x2="40" y2="28"/><line class="cls-1" x1="27" y1="24" x2="29" y2="24"/><line class="cls-1" x1="31" y1="32" x2="33" y2="32"/><line class="cls-1" x1="35" y1="32" x2="42" y2="32"/><line class="cls-1" x1="31" y1="24" x2="42" y2="24"/><line class="cls-1" x1="23" y1="28" x2="36" y2="28"/><line class="cls-1" x1="27" y1="36" x2="25" y2="36"/><line class="cls-1" x1="40" y1="40" x2="36" y2="40"/><line class="cls-1" x1="34" y1="40" x2="23" y2="40"/><line class="cls-1" x1="42" y1="36" x2="29" y2="36"/><line class="cls-1" x1="23" y1="32" x2="29" y2="32"/><line class="cls-1" x1="6" y1="18" x2="11" y2="18"/><line class="cls-1" x1="6" y1="23" x2="11" y2="23"/><line class="cls-1" x1="6" y1="28" x2="11" y2="28"/><line class="cls-1" x1="6" y1="33" x2="11" y2="33"/><line class="cls-1" x1="6" y1="38" x2="11" y2="38"/></svg>